<?xml version="1.0" encoding="UTF-8" standalone="no"?><!DOCTYPE svg PUBLIC "-//W3C//DTD SVG 1.1//EN" "http://www.w3.org/Graphics/SVG/1.1/DTD/svg11.dtd"><svg width="100%" height="100%" viewBox="0 0 800 800" version="1.1" xmlns="http://www.w3.org/2000/svg" xmlns:xlink="http://www.w3.org/1999/xlink" xml:space="preserve" xmlns:serif="http://www.serif.com/" style="fill-rule:evenodd;clip-rule:evenodd;stroke-linejoin:round;stroke-miterlimit:2;"><path d="M612,645.333c-8.741,-0.036 -17.127,-3.51 -23.333,-9.666c-12.839,-12.916 -12.839,-34.085 -0,-47c50.054,-49.999 78.209,-117.918 78.209,-188.667c0,-70.749 -28.155,-138.668 -78.209,-188.667c-5.171,-6.038 -8.016,-13.732 -8.016,-21.682c0,-18.286 15.048,-33.333 33.334,-33.333c7.95,0 15.643,2.844 21.682,8.015c129.256,129.295 129.256,342.039 -0,471.334c-6.289,6.237 -14.81,9.718 -23.667,9.666Z" style="fill-rule:nonzero;"/><path d="M518,551.333c-8.905,-0.037 -17.433,-3.64 -23.667,-10c-12.839,-12.915 -12.839,-34.084 0,-47c25.028,-24.999 39.105,-58.959 39.105,-94.333c0,-35.374 -14.077,-69.334 -39.105,-94.333c-5.171,-6.039 -8.015,-13.732 -8.015,-21.682c0,-18.286 15.047,-33.334 33.333,-33.334c7.95,0 15.644,2.845 21.682,8.016c77.467,77.563 77.467,205.103 0,282.666c-6.152,6.278 -14.544,9.875 -23.333,10Z" style="fill-rule:nonzero;"/><path d="M379.333,136c-12.388,-5.209 -26.767,-2.439 -36.333,7l-123.333,123.667l-86.334,-0c-36.572,-0 -66.666,30.094 -66.666,66.666l-0,133.334c-0,36.572 30.094,66.666 66.666,66.666l86.334,0l123.333,123.667c6.288,6.237 14.81,9.718 23.667,9.667c4.372,0.112 8.711,-0.801 12.666,-2.667c12.423,-5.103 20.6,-17.237 20.667,-30.667l0,-466.666c-0.067,-13.43 -8.244,-25.564 -20.667,-30.667Z" style="fill-rule:nonzero;"/></svg>